<svg width="3949" height="1528" viewBox="0 0 3949 1528" fill="none" xmlns="http://www.w3.org/2000/svg">
<mask id="path-1-outside-1_588_46" maskUnits="userSpaceOnUse" x="1801" y="728" width="2148" height="800" fill="black">
<rect fill="white" x="1801" y="728" width="2148" height="800"/>
<path d="M1894.32 1485.89C1877.18 1485.89 1862.83 1481.15 1851.28 1471.66C1840.1 1461.81 1831.16 1448.68 1824.45 1432.27C1817.74 1415.85 1812.89 1397.07 1809.91 1375.91C1807.3 1354.39 1806 1331.95 1806 1308.61C1806 1271.77 1807.49 1238.57 1810.47 1209.03C1813.45 1179.48 1816.99 1154.13 1821.09 1132.97C1825.19 1111.45 1829.29 1094.67 1833.39 1082.63C1837.49 1070.23 1840.47 1062.75 1842.34 1060.2C1844.94 1056.92 1848.3 1053.82 1852.4 1050.9C1856.87 1047.98 1861.34 1045.61 1865.81 1043.79C1870.29 1041.96 1874.76 1040.5 1879.23 1039.41C1883.7 1038.31 1887.43 1037.77 1890.41 1037.77C1898.98 1037.77 1904.95 1039.41 1908.3 1042.69C1911.65 1045.97 1913.33 1051.81 1913.33 1060.2C1912.96 1060.2 1912.03 1064.03 1910.54 1071.69C1909.42 1078.99 1907.93 1089.02 1906.06 1101.78C1904.2 1114.55 1902.15 1129.51 1899.91 1146.65C1897.68 1163.43 1895.63 1181.3 1893.77 1200.27C1892.27 1219.24 1890.97 1238.57 1889.85 1258.27C1888.73 1277.6 1888.18 1296.39 1888.18 1314.63C1888.18 1330.68 1888.73 1345.63 1889.85 1359.49C1890.97 1373.36 1892.83 1385.58 1895.44 1396.15C1898.42 1406.73 1901.96 1415.12 1906.06 1421.32C1910.54 1427.16 1916.13 1430.08 1922.83 1430.08C1929.54 1430.08 1935.88 1425.88 1941.84 1417.49C1947.8 1408.74 1953.39 1397.61 1958.61 1384.12C1963.83 1370.26 1968.67 1354.93 1973.15 1338.16C1977.62 1321.01 1981.72 1303.87 1985.44 1286.72C1989.17 1269.21 1992.52 1252.8 1995.51 1237.48C1998.86 1221.79 2001.66 1208.66 2003.89 1198.08C2005.38 1192.61 2008.18 1187.69 2012.28 1183.31C2016.75 1178.57 2021.97 1174.56 2027.93 1171.27C2033.89 1167.99 2040.23 1165.44 2046.94 1163.61C2053.64 1161.79 2059.98 1160.88 2065.94 1160.88C2070.41 1160.88 2073.4 1162.34 2074.89 1165.25C2076.38 1167.81 2077.12 1172 2077.12 1177.84C2077.12 1210.67 2079.17 1242.59 2083.27 1273.59C2087.37 1304.6 2093.15 1332.14 2100.6 1356.21C2108.43 1380.29 2117.56 1399.62 2127.99 1414.21C2138.43 1428.44 2150.17 1435.55 2163.21 1435.55C2172.16 1435.55 2180.54 1432.27 2188.37 1425.7C2196.19 1418.77 2203.09 1410.38 2209.05 1400.53C2215.39 1390.32 2220.42 1379.56 2224.14 1368.25C2228.24 1356.94 2230.85 1346.91 2231.97 1338.16C2217.06 1331.95 2203.09 1322.11 2190.04 1308.61C2177 1294.75 2165.45 1278.7 2155.38 1260.46C2145.7 1241.86 2138.06 1221.79 2132.47 1200.27C2126.88 1178.75 2124.08 1157.05 2124.08 1135.16C2124.08 1123.12 2125.38 1111.27 2127.99 1099.59C2130.6 1087.92 2134.52 1077.53 2139.73 1068.41C2145.32 1059.29 2152.22 1051.99 2160.42 1046.52C2168.62 1040.68 2178.3 1037.77 2189.48 1037.77C2204.39 1037.77 2217.25 1042.33 2228.06 1051.45C2239.24 1060.56 2248.37 1072.97 2255.45 1088.65C2262.9 1103.97 2268.49 1121.85 2272.22 1142.27C2275.95 1162.7 2277.81 1184.22 2277.81 1206.84C2277.81 1223.62 2276.69 1242.22 2274.46 1262.65C2272.22 1283.07 2269.42 1301.86 2266.07 1319H2276.69C2295.33 1319 2311.35 1312.44 2324.77 1299.31C2338.56 1286.18 2350.3 1269.94 2359.98 1250.61L2365.57 1239.12L2388.49 1256.08L2382.9 1267.57C2370.98 1290.55 2355.51 1309.34 2336.51 1323.93C2317.5 1338.52 2294.77 1345.82 2268.31 1345.82H2260.48C2254.89 1365.51 2248.18 1383.93 2240.36 1401.08C2232.53 1417.86 2223.4 1432.63 2212.96 1445.4C2202.9 1457.8 2191.72 1467.65 2179.42 1474.94C2167.12 1482.24 2154.08 1485.89 2140.29 1485.89C2124.27 1485.89 2110.1 1482.79 2097.81 1476.59C2085.88 1470.38 2075.45 1462.18 2066.5 1451.96C2057.56 1441.39 2049.92 1429.71 2043.58 1416.95C2037.62 1403.81 2032.59 1390.5 2028.49 1377C2024.76 1363.14 2021.78 1349.83 2019.54 1337.06C2017.31 1323.93 2015.63 1312.26 2014.51 1302.04C2011.53 1314.08 2008.36 1327.03 2005.01 1340.89C2001.66 1354.39 1997.74 1368.07 1993.27 1381.93C1988.8 1395.42 1983.58 1408.56 1977.62 1421.32C1971.66 1433.73 1964.57 1444.67 1956.38 1454.15C1948.55 1463.64 1939.42 1471.3 1928.98 1477.13C1918.92 1482.97 1907.37 1485.89 1894.32 1485.89ZM2156.5 1136.25C2156.5 1153.03 2158.37 1170.36 2162.09 1188.23C2165.82 1205.74 2171.22 1222.34 2178.3 1238.03C2185.39 1253.71 2193.77 1267.75 2203.46 1280.16C2213.52 1292.56 2224.52 1302.04 2236.44 1308.61C2236.81 1304.23 2237.19 1299.12 2237.56 1293.29C2238.31 1287.45 2238.68 1281.43 2238.68 1275.23C2239.05 1268.67 2239.24 1262.47 2239.24 1256.63C2239.61 1250.43 2239.8 1244.96 2239.8 1240.21C2239.8 1219.79 2238.49 1200.09 2235.88 1181.12C2233.27 1161.79 2229.55 1144.64 2224.7 1129.69C2219.86 1114.73 2214.08 1102.88 2207.37 1094.12C2200.67 1085 2193.21 1080.44 2185.01 1080.44C2179.42 1080.44 2174.76 1082.27 2171.04 1085.92C2167.31 1089.2 2164.33 1093.58 2162.09 1099.05C2159.86 1104.52 2158.37 1110.54 2157.62 1117.1C2156.88 1123.67 2156.5 1130.05 2156.5 1136.25Z"/>
<path d="M2704.9 1350.19C2704.9 1370.98 2706.76 1388.49 2710.49 1402.72C2714.21 1416.95 2720.74 1424.06 2730.05 1424.06C2735.64 1424.06 2741.61 1421.51 2747.94 1416.4C2754.65 1410.93 2762.29 1402.17 2770.86 1390.14C2779.43 1378.1 2789.12 1362.59 2799.93 1343.63C2811.11 1324.29 2823.78 1300.77 2837.94 1273.04L2854.71 1239.12L2877.63 1256.08L2860.86 1290.01C2845.21 1320.65 2830.49 1348.19 2816.7 1372.63C2803.28 1396.7 2790.43 1417.13 2778.13 1433.91C2765.83 1450.69 2753.72 1463.64 2741.79 1472.76C2730.24 1481.51 2718.69 1485.89 2707.13 1485.89C2694.84 1485.89 2684.4 1482.6 2675.83 1476.04C2667.63 1469.47 2660.74 1460.54 2655.15 1449.23C2649.56 1437.56 2645.27 1424.24 2642.29 1409.29C2639.31 1393.97 2637.26 1377.73 2636.14 1360.59C2627.19 1378.1 2617.32 1394.51 2606.51 1409.83C2595.7 1424.79 2584.34 1437.92 2572.41 1449.23C2560.86 1460.54 2548.75 1469.47 2536.07 1476.04C2523.4 1482.6 2510.73 1485.89 2498.06 1485.89C2479.43 1485.89 2461.35 1482.06 2443.84 1474.4C2426.32 1466.74 2410.67 1455.06 2396.88 1439.38C2383.46 1423.69 2372.66 1404 2364.46 1380.29C2356.26 1356.21 2352.16 1327.94 2352.16 1295.48C2352.16 1257.54 2357.19 1222.89 2367.25 1191.52C2377.31 1159.78 2390.92 1132.61 2408.06 1109.99C2425.2 1087.01 2444.96 1069.32 2467.32 1056.92C2489.68 1044.15 2513.16 1037.77 2537.75 1037.77C2552.66 1037.77 2566.45 1041.05 2579.12 1047.62C2591.79 1054.18 2602.78 1062.21 2612.1 1071.69C2621.79 1080.81 2629.8 1090.66 2636.14 1101.24C2642.47 1111.45 2646.76 1120.2 2649 1127.5L2655.7 1074.43C2656.45 1067.5 2659.8 1061.66 2665.77 1056.92C2672.1 1052.17 2679 1048.53 2686.45 1045.97C2693.9 1043.06 2701.17 1041.05 2708.25 1039.95C2715.33 1038.5 2720.36 1037.77 2723.35 1037.77C2727.82 1037.77 2730.8 1038.5 2732.29 1039.95C2733.78 1041.41 2734.53 1044.33 2734.53 1048.71C2734.53 1054.18 2732.85 1065.31 2729.49 1082.09C2726.51 1098.5 2723.16 1119.66 2719.43 1145.56C2716.08 1171.09 2712.72 1201.18 2709.37 1235.84C2706.39 1270.49 2704.9 1308.61 2704.9 1350.19ZM2643.41 1205.74C2643.41 1188.96 2640.8 1172.55 2635.58 1156.5C2630.36 1140.08 2623.28 1125.68 2614.34 1113.27C2605.39 1100.51 2594.96 1090.29 2583.03 1082.63C2571.48 1074.97 2559.18 1071.14 2546.14 1071.14C2530.11 1071.14 2515.02 1075.7 2500.86 1084.82C2487.07 1093.58 2474.96 1106.16 2464.52 1122.58C2454.46 1138.63 2446.45 1158.14 2440.48 1181.12C2434.52 1203.74 2431.54 1228.72 2431.54 1256.08C2431.54 1310.8 2440.3 1352.56 2457.81 1381.38C2475.33 1409.83 2498.62 1424.06 2527.69 1424.06C2540.36 1424.06 2553.4 1419.13 2566.82 1409.29C2580.61 1399.07 2593.09 1384.66 2604.27 1366.06C2615.83 1347.09 2625.14 1324.11 2632.23 1297.12C2639.68 1270.13 2643.41 1239.67 2643.41 1205.74Z"/>
<path d="M2852.48 1306.42C2852.48 1267.75 2853.97 1228.91 2856.95 1189.88C2859.93 1150.85 2863.84 1111.27 2868.69 1071.14H2817.82L2823.97 1037.77H2873.16C2878.38 1000.56 2883.6 963.353 2888.81 926.146C2894.4 888.575 2899.44 851.003 2903.91 813.432H2960.93C2960.18 821.457 2959.06 833.13 2957.57 848.45C2956.45 863.406 2954.96 880.915 2953.1 900.977C2951.61 920.675 2950.12 942.379 2948.63 966.089C2947.14 989.434 2945.65 1013.33 2944.16 1037.77H3052.61L3047.02 1071.14H2941.92C2940.43 1091.93 2939.13 1112.36 2938.01 1132.42C2936.89 1152.49 2935.77 1171.64 2934.65 1189.88C2933.91 1207.75 2933.35 1224.35 2932.98 1239.67C2932.6 1254.62 2932.42 1267.57 2932.42 1278.52C2932.42 1306.24 2933.16 1329.4 2934.65 1348C2936.52 1366.61 2939.13 1381.56 2942.48 1392.87C2946.21 1404.18 2950.68 1412.2 2955.9 1416.95C2961.49 1421.69 2967.82 1424.06 2974.9 1424.06C2984.22 1424.06 2994.47 1419.5 3005.65 1410.38C3017.2 1400.9 3029.13 1388.31 3041.43 1372.63C3053.72 1356.94 3066.21 1338.7 3078.88 1317.91C3091.55 1296.75 3103.85 1274.32 3115.77 1250.61L3121.36 1239.12L3144.28 1256.08L3138.69 1267.57C3121.55 1301.5 3104.41 1331.95 3087.26 1358.95C3070.49 1385.94 3053.91 1408.92 3037.51 1427.89C3021.11 1446.49 3005.09 1460.9 2989.44 1471.11C2973.78 1480.96 2958.69 1485.89 2944.16 1485.89C2929.62 1485.89 2916.58 1482.6 2905.03 1476.04C2893.85 1469.47 2884.34 1459.08 2876.52 1444.85C2868.69 1430.26 2862.73 1411.66 2858.63 1389.04C2854.53 1366.43 2852.48 1338.88 2852.48 1306.42Z"/>
<path d="M3310.87 1173.46C3315.34 1166.53 3319.07 1157.96 3322.05 1147.74C3325.41 1137.53 3327.08 1127.32 3327.08 1117.1C3327.08 1104.7 3323.91 1093.94 3317.58 1084.82C3311.24 1075.7 3299.88 1071.14 3283.48 1071.14C3272.67 1071.14 3261.68 1074.97 3250.5 1082.63C3239.32 1090.29 3228.88 1101.78 3219.19 1117.1C3209.88 1132.42 3202.24 1151.76 3196.27 1175.1C3190.31 1198.45 3187.33 1225.81 3187.33 1257.18C3187.33 1281.98 3189.94 1304.6 3195.15 1325.02C3200.37 1345.45 3208.01 1362.96 3218.07 1377.55C3228.14 1392.14 3240.25 1403.63 3254.41 1412.02C3268.94 1420.05 3285.16 1424.06 3303.04 1424.06C3316.09 1424.06 3329.32 1420.78 3342.73 1414.21C3356.52 1407.64 3370.31 1397.43 3384.1 1383.57C3398.26 1369.71 3412.8 1351.83 3427.71 1329.95C3442.61 1307.7 3457.89 1281.25 3473.54 1250.61L3479.13 1239.12L3502.05 1256.08L3496.46 1267.57C3476.34 1306.6 3456.22 1339.98 3436.09 1367.7C3416.34 1395.42 3396.77 1418.04 3377.39 1435.55C3358.01 1453.06 3339.01 1465.83 3320.37 1473.85C3302.11 1481.88 3284.41 1485.89 3267.27 1485.89C3243.04 1485.89 3221.43 1480.96 3202.42 1471.11C3183.42 1461.27 3167.39 1447.95 3154.35 1431.17C3141.3 1414.03 3131.24 1394.33 3124.16 1372.08C3117.45 1349.46 3114.1 1325.75 3114.1 1300.95C3114.1 1261.55 3119.5 1225.81 3130.31 1193.71C3141.49 1161.24 3155.84 1133.52 3173.35 1110.54C3190.87 1087.56 3210.62 1069.68 3232.61 1056.92C3254.6 1044.15 3276.77 1037.77 3299.13 1037.77C3316.27 1037.77 3330.62 1040.14 3342.18 1044.88C3353.73 1049.62 3363.05 1055.64 3370.13 1062.94C3377.21 1070.23 3382.24 1078.07 3385.22 1086.46C3388.2 1094.85 3389.69 1102.88 3389.69 1110.54C3389.69 1118.2 3388.02 1126.22 3384.66 1134.61C3381.31 1142.64 3376.28 1150.3 3369.57 1157.59C3363.23 1164.52 3355.59 1170.91 3346.65 1176.74C3337.7 1182.22 3327.64 1186.23 3316.46 1188.78L3310.87 1173.46Z"/>
<path d="M3554.04 1295.48C3554.04 1313.35 3553.48 1332.32 3552.37 1352.38C3551.25 1372.08 3548.83 1391.96 3545.1 1412.02C3541.74 1431.72 3536.71 1451.05 3530.01 1470.02C3523.3 1488.62 3514.17 1505.95 3502.61 1522L3460.13 1509.42C3469.45 1478.77 3475.04 1446.67 3476.9 1413.12C3478.76 1379.56 3479.69 1346 3479.69 1312.44C3479.69 1275.96 3478.58 1239.48 3476.34 1203.01C3473.73 1166.53 3470.94 1130.05 3467.95 1093.58C3464.6 1056.73 3461.81 1019.71 3459.57 982.503C3456.96 945.297 3455.66 907.725 3455.66 869.789C3455.66 846.809 3458.26 826.746 3463.48 809.602C3468.33 792.458 3474.85 778.232 3483.05 766.924C3491.25 755.616 3500.38 747.226 3510.44 741.755C3520.5 735.918 3530.56 733 3540.63 733C3554.79 733 3565.97 737.924 3574.17 747.773C3582.74 757.622 3589.07 770.936 3593.17 787.716C3597.27 804.495 3599.32 824.01 3599.32 846.261C3599.7 868.512 3598.76 892.04 3596.53 916.845C3594.29 941.649 3591.12 967.001 3587.02 992.899C3582.93 1018.8 3578.45 1043.97 3573.61 1068.41C3568.76 1092.85 3563.92 1115.64 3559.07 1136.8C3554.6 1157.96 3550.69 1176.01 3547.33 1190.97C3547.33 1193.89 3547.52 1196.99 3547.89 1200.27C3548.27 1203.19 3548.45 1206.11 3548.45 1209.03C3556.28 1191.88 3565.78 1173.46 3576.96 1153.76C3588.52 1133.7 3601.37 1115.1 3615.53 1097.95C3630.07 1080.81 3645.72 1066.58 3662.49 1055.28C3679.64 1043.6 3697.71 1037.77 3716.72 1037.77C3744.67 1037.77 3765.72 1046.89 3779.89 1065.12C3794.05 1083.36 3801.13 1109.63 3801.13 1143.91C3801.13 1167.62 3799.82 1190.42 3797.21 1212.31C3794.61 1234.2 3791.62 1255.35 3788.27 1275.78C3785.29 1295.84 3782.49 1315.36 3779.89 1334.33C3777.28 1353.29 3775.97 1372.08 3775.97 1390.68C3775.97 1412.93 3781.75 1424.06 3793.3 1424.06C3798.89 1424.06 3805.97 1419.32 3814.54 1409.83C3823.49 1399.98 3833.36 1387.03 3844.17 1370.98C3854.98 1354.93 3866.35 1336.51 3878.27 1315.72C3890.2 1294.93 3901.94 1273.23 3913.49 1250.61L3919.08 1239.12L3942 1256.08L3936.41 1267.57C3923.37 1292.74 3909.76 1318.28 3895.6 1344.17C3881.44 1370.07 3866.91 1393.6 3852 1414.76C3837.09 1435.55 3821.81 1452.69 3806.16 1466.19C3790.88 1479.32 3775.6 1485.89 3760.32 1485.89C3753.61 1485.89 3746.72 1484.79 3739.64 1482.6C3732.93 1480.42 3726.78 1476.59 3721.19 1471.11C3715.6 1465.64 3710.94 1458.35 3707.21 1449.23C3703.49 1439.74 3701.62 1427.71 3701.62 1413.12C3701.62 1398.52 3702.37 1382.66 3703.86 1365.51C3705.35 1348.37 3707.03 1330.86 3708.89 1312.99C3711.13 1294.75 3713.55 1276.69 3716.16 1258.82C3718.77 1240.94 3721 1224.16 3722.87 1208.48C3725.1 1192.79 3726.97 1178.75 3728.46 1166.35C3729.95 1153.58 3730.69 1143.19 3730.69 1135.16C3730.69 1114.37 3727.71 1099.23 3721.75 1089.75C3715.78 1080.26 3706.84 1075.52 3694.91 1075.52C3680.01 1075.52 3665.66 1081.9 3651.87 1094.67C3638.08 1107.44 3625.04 1123.49 3612.74 1142.82C3600.81 1161.79 3589.82 1182.4 3579.76 1204.65C3569.7 1226.54 3560.75 1246.78 3552.92 1265.38C3552.92 1270.86 3553.11 1276.33 3553.48 1281.8C3553.86 1286.9 3554.04 1291.46 3554.04 1295.48ZM3517.71 827.111C3517.71 842.067 3518.27 860.305 3519.38 881.827C3520.87 902.983 3522.55 925.964 3524.42 950.768C3526.65 975.573 3528.89 1001.47 3531.12 1028.46C3533.73 1055.46 3536.34 1082.09 3538.95 1108.35C3543.05 1087.92 3547.15 1065.49 3551.25 1041.05C3555.35 1016.24 3558.89 991.44 3561.87 966.636C3565.22 941.467 3567.65 917.027 3569.14 893.317C3571 869.607 3571.37 848.632 3570.25 830.394C3569.51 812.155 3567.09 797.564 3562.99 786.621C3558.89 775.313 3552.92 769.659 3545.1 769.659C3538.02 769.659 3531.68 773.854 3526.09 782.244C3520.5 790.634 3517.71 805.589 3517.71 827.111Z"/>
</mask>
<path d="M1894.32 1485.89C1877.18 1485.89 1862.83 1481.15 1851.28 1471.66C1840.1 1461.81 1831.16 1448.68 1824.45 1432.27C1817.74 1415.85 1812.89 1397.07 1809.91 1375.91C1807.3 1354.39 1806 1331.95 1806 1308.61C1806 1271.77 1807.49 1238.57 1810.47 1209.03C1813.45 1179.48 1816.99 1154.13 1821.09 1132.97C1825.19 1111.45 1829.29 1094.67 1833.39 1082.63C1837.49 1070.23 1840.47 1062.75 1842.34 1060.2C1844.94 1056.92 1848.3 1053.82 1852.4 1050.9C1856.87 1047.98 1861.34 1045.61 1865.81 1043.79C1870.29 1041.96 1874.76 1040.5 1879.23 1039.41C1883.7 1038.31 1887.43 1037.77 1890.41 1037.77C1898.98 1037.77 1904.95 1039.41 1908.3 1042.69C1911.65 1045.97 1913.33 1051.81 1913.33 1060.2C1912.96 1060.2 1912.03 1064.03 1910.54 1071.69C1909.42 1078.99 1907.93 1089.02 1906.06 1101.78C1904.2 1114.55 1902.15 1129.51 1899.91 1146.65C1897.68 1163.43 1895.63 1181.3 1893.77 1200.27C1892.27 1219.24 1890.97 1238.57 1889.85 1258.27C1888.73 1277.6 1888.18 1296.39 1888.18 1314.63C1888.18 1330.68 1888.73 1345.63 1889.85 1359.49C1890.97 1373.36 1892.83 1385.58 1895.44 1396.15C1898.42 1406.73 1901.96 1415.12 1906.06 1421.32C1910.54 1427.16 1916.13 1430.08 1922.83 1430.08C1929.54 1430.08 1935.88 1425.88 1941.84 1417.49C1947.8 1408.74 1953.39 1397.61 1958.61 1384.12C1963.83 1370.26 1968.67 1354.93 1973.15 1338.16C1977.62 1321.01 1981.72 1303.87 1985.44 1286.72C1989.17 1269.21 1992.52 1252.8 1995.51 1237.48C1998.86 1221.79 2001.66 1208.66 2003.89 1198.08C2005.38 1192.61 2008.18 1187.69 2012.28 1183.31C2016.75 1178.57 2021.97 1174.56 2027.93 1171.27C2033.89 1167.99 2040.23 1165.44 2046.94 1163.61C2053.64 1161.79 2059.98 1160.88 2065.94 1160.88C2070.41 1160.88 2073.4 1162.34 2074.89 1165.25C2076.38 1167.81 2077.12 1172 2077.12 1177.84C2077.12 1210.67 2079.17 1242.59 2083.27 1273.59C2087.37 1304.6 2093.15 1332.14 2100.6 1356.21C2108.43 1380.29 2117.56 1399.62 2127.99 1414.21C2138.43 1428.44 2150.17 1435.55 2163.21 1435.55C2172.16 1435.55 2180.54 1432.27 2188.37 1425.7C2196.19 1418.77 2203.09 1410.38 2209.05 1400.53C2215.39 1390.32 2220.42 1379.56 2224.14 1368.25C2228.24 1356.94 2230.85 1346.91 2231.97 1338.16C2217.06 1331.95 2203.09 1322.11 2190.04 1308.61C2177 1294.75 2165.45 1278.7 2155.38 1260.46C2145.7 1241.86 2138.06 1221.79 2132.47 1200.27C2126.88 1178.75 2124.08 1157.05 2124.08 1135.16C2124.08 1123.12 2125.38 1111.27 2127.99 1099.59C2130.6 1087.92 2134.52 1077.53 2139.73 1068.41C2145.32 1059.29 2152.22 1051.99 2160.42 1046.52C2168.62 1040.68 2178.3 1037.77 2189.48 1037.77C2204.39 1037.77 2217.25 1042.33 2228.06 1051.45C2239.24 1060.56 2248.37 1072.97 2255.45 1088.65C2262.9 1103.97 2268.49 1121.85 2272.22 1142.27C2275.95 1162.7 2277.81 1184.22 2277.81 1206.84C2277.81 1223.62 2276.69 1242.22 2274.46 1262.65C2272.22 1283.07 2269.42 1301.86 2266.07 1319H2276.69C2295.33 1319 2311.35 1312.44 2324.77 1299.31C2338.56 1286.18 2350.3 1269.94 2359.98 1250.61L2365.57 1239.12L2388.49 1256.08L2382.9 1267.57C2370.98 1290.55 2355.51 1309.34 2336.51 1323.93C2317.5 1338.52 2294.77 1345.82 2268.31 1345.82H2260.48C2254.89 1365.51 2248.18 1383.93 2240.36 1401.08C2232.53 1417.86 2223.4 1432.63 2212.96 1445.4C2202.9 1457.8 2191.72 1467.65 2179.42 1474.94C2167.12 1482.24 2154.08 1485.89 2140.29 1485.89C2124.27 1485.89 2110.1 1482.79 2097.81 1476.59C2085.88 1470.38 2075.45 1462.18 2066.5 1451.96C2057.56 1441.39 2049.92 1429.71 2043.58 1416.95C2037.62 1403.81 2032.59 1390.5 2028.49 1377C2024.76 1363.14 2021.78 1349.83 2019.54 1337.06C2017.31 1323.93 2015.63 1312.26 2014.51 1302.04C2011.53 1314.08 2008.36 1327.03 2005.01 1340.89C2001.66 1354.39 1997.74 1368.07 1993.27 1381.93C1988.8 1395.42 1983.58 1408.56 1977.62 1421.32C1971.66 1433.73 1964.57 1444.67 1956.38 1454.15C1948.55 1463.64 1939.42 1471.3 1928.98 1477.13C1918.92 1482.97 1907.37 1485.89 1894.32 1485.89ZM2156.5 1136.25C2156.5 1153.03 2158.37 1170.36 2162.09 1188.23C2165.82 1205.74 2171.22 1222.34 2178.3 1238.03C2185.39 1253.71 2193.77 1267.75 2203.46 1280.16C2213.52 1292.56 2224.52 1302.04 2236.44 1308.61C2236.81 1304.23 2237.19 1299.12 2237.56 1293.29C2238.31 1287.45 2238.68 1281.43 2238.68 1275.23C2239.05 1268.67 2239.24 1262.47 2239.24 1256.63C2239.61 1250.43 2239.8 1244.96 2239.8 1240.21C2239.8 1219.79 2238.49 1200.09 2235.88 1181.12C2233.27 1161.79 2229.55 1144.64 2224.7 1129.69C2219.86 1114.73 2214.08 1102.88 2207.37 1094.12C2200.67 1085 2193.21 1080.44 2185.01 1080.44C2179.42 1080.44 2174.76 1082.27 2171.04 1085.92C2167.31 1089.2 2164.33 1093.58 2162.09 1099.05C2159.86 1104.52 2158.37 1110.54 2157.62 1117.1C2156.88 1123.67 2156.5 1130.05 2156.5 1136.25Z" fill="#EB0000"/>
<path d="M2704.9 1350.19C2704.9 1370.98 2706.76 1388.49 2710.49 1402.72C2714.21 1416.95 2720.74 1424.06 2730.05 1424.06C2735.64 1424.06 2741.61 1421.51 2747.94 1416.4C2754.65 1410.93 2762.29 1402.17 2770.86 1390.14C2779.43 1378.1 2789.12 1362.59 2799.93 1343.63C2811.11 1324.29 2823.78 1300.77 2837.94 1273.04L2854.71 1239.12L2877.63 1256.08L2860.86 1290.01C2845.21 1320.65 2830.49 1348.19 2816.7 1372.63C2803.28 1396.7 2790.43 1417.13 2778.13 1433.91C2765.83 1450.69 2753.72 1463.64 2741.79 1472.76C2730.24 1481.51 2718.69 1485.89 2707.13 1485.89C2694.84 1485.89 2684.4 1482.6 2675.83 1476.04C2667.63 1469.47 2660.74 1460.54 2655.15 1449.23C2649.56 1437.56 2645.27 1424.24 2642.29 1409.29C2639.31 1393.97 2637.26 1377.73 2636.14 1360.59C2627.19 1378.1 2617.32 1394.51 2606.51 1409.83C2595.7 1424.79 2584.34 1437.92 2572.41 1449.23C2560.86 1460.54 2548.75 1469.47 2536.07 1476.04C2523.4 1482.6 2510.73 1485.89 2498.06 1485.89C2479.43 1485.89 2461.35 1482.06 2443.84 1474.4C2426.32 1466.74 2410.67 1455.06 2396.88 1439.38C2383.46 1423.69 2372.66 1404 2364.46 1380.29C2356.26 1356.21 2352.16 1327.94 2352.16 1295.48C2352.16 1257.54 2357.19 1222.89 2367.25 1191.52C2377.31 1159.78 2390.92 1132.61 2408.06 1109.99C2425.2 1087.01 2444.96 1069.32 2467.32 1056.92C2489.68 1044.15 2513.16 1037.77 2537.75 1037.77C2552.66 1037.77 2566.45 1041.05 2579.12 1047.62C2591.79 1054.18 2602.78 1062.21 2612.1 1071.69C2621.79 1080.81 2629.8 1090.66 2636.14 1101.24C2642.47 1111.45 2646.76 1120.2 2649 1127.5L2655.7 1074.43C2656.45 1067.5 2659.8 1061.66 2665.77 1056.92C2672.1 1052.17 2679 1048.53 2686.45 1045.97C2693.9 1043.06 2701.17 1041.05 2708.25 1039.95C2715.33 1038.5 2720.36 1037.77 2723.35 1037.77C2727.82 1037.77 2730.8 1038.5 2732.29 1039.95C2733.78 1041.41 2734.53 1044.33 2734.53 1048.71C2734.53 1054.18 2732.85 1065.31 2729.49 1082.09C2726.51 1098.5 2723.16 1119.66 2719.43 1145.56C2716.08 1171.09 2712.72 1201.18 2709.37 1235.84C2706.39 1270.49 2704.9 1308.61 2704.9 1350.19ZM2643.41 1205.74C2643.41 1188.96 2640.8 1172.55 2635.58 1156.5C2630.36 1140.08 2623.28 1125.68 2614.34 1113.27C2605.39 1100.51 2594.96 1090.29 2583.03 1082.63C2571.48 1074.97 2559.18 1071.14 2546.14 1071.14C2530.11 1071.14 2515.02 1075.7 2500.86 1084.82C2487.07 1093.58 2474.96 1106.16 2464.52 1122.58C2454.46 1138.63 2446.45 1158.14 2440.48 1181.12C2434.52 1203.74 2431.54 1228.72 2431.54 1256.08C2431.54 1310.8 2440.3 1352.56 2457.81 1381.38C2475.33 1409.83 2498.62 1424.06 2527.69 1424.06C2540.36 1424.06 2553.4 1419.13 2566.82 1409.29C2580.61 1399.07 2593.09 1384.66 2604.27 1366.06C2615.83 1347.09 2625.14 1324.11 2632.23 1297.12C2639.68 1270.13 2643.41 1239.67 2643.41 1205.74Z" fill="#EB0000"/>
<path d="M2852.48 1306.42C2852.48 1267.75 2853.97 1228.91 2856.95 1189.88C2859.93 1150.85 2863.84 1111.27 2868.69 1071.14H2817.82L2823.97 1037.77H2873.16C2878.38 1000.56 2883.6 963.353 2888.81 926.146C2894.4 888.575 2899.44 851.003 2903.91 813.432H2960.93C2960.18 821.457 2959.06 833.13 2957.57 848.45C2956.45 863.406 2954.96 880.915 2953.1 900.977C2951.61 920.675 2950.12 942.379 2948.63 966.089C2947.14 989.434 2945.65 1013.33 2944.16 1037.77H3052.61L3047.02 1071.14H2941.92C2940.43 1091.93 2939.13 1112.36 2938.01 1132.42C2936.89 1152.49 2935.77 1171.64 2934.65 1189.88C2933.91 1207.75 2933.35 1224.35 2932.98 1239.67C2932.6 1254.62 2932.42 1267.57 2932.42 1278.52C2932.42 1306.24 2933.16 1329.4 2934.65 1348C2936.52 1366.61 2939.13 1381.56 2942.48 1392.87C2946.21 1404.18 2950.68 1412.2 2955.9 1416.95C2961.49 1421.69 2967.82 1424.06 2974.9 1424.06C2984.22 1424.06 2994.47 1419.5 3005.65 1410.38C3017.2 1400.9 3029.13 1388.31 3041.43 1372.63C3053.72 1356.94 3066.21 1338.7 3078.88 1317.91C3091.55 1296.75 3103.85 1274.32 3115.77 1250.61L3121.36 1239.12L3144.28 1256.08L3138.69 1267.57C3121.55 1301.5 3104.41 1331.95 3087.26 1358.95C3070.49 1385.94 3053.91 1408.92 3037.51 1427.89C3021.11 1446.49 3005.09 1460.9 2989.44 1471.11C2973.78 1480.96 2958.69 1485.89 2944.16 1485.89C2929.62 1485.89 2916.58 1482.6 2905.03 1476.04C2893.85 1469.47 2884.34 1459.08 2876.52 1444.85C2868.69 1430.26 2862.73 1411.66 2858.63 1389.04C2854.53 1366.43 2852.48 1338.88 2852.48 1306.42Z" fill="#EB0000"/>
<path d="M3310.87 1173.46C3315.34 1166.53 3319.07 1157.96 3322.05 1147.74C3325.41 1137.53 3327.08 1127.32 3327.08 1117.1C3327.08 1104.7 3323.91 1093.94 3317.58 1084.82C3311.24 1075.7 3299.88 1071.14 3283.48 1071.14C3272.67 1071.14 3261.68 1074.97 3250.5 1082.63C3239.32 1090.29 3228.88 1101.78 3219.19 1117.1C3209.88 1132.42 3202.24 1151.76 3196.27 1175.1C3190.31 1198.45 3187.33 1225.81 3187.33 1257.18C3187.33 1281.98 3189.94 1304.6 3195.15 1325.02C3200.37 1345.45 3208.01 1362.96 3218.07 1377.55C3228.14 1392.14 3240.25 1403.63 3254.41 1412.02C3268.94 1420.05 3285.16 1424.06 3303.04 1424.06C3316.09 1424.06 3329.32 1420.78 3342.73 1414.21C3356.52 1407.64 3370.31 1397.43 3384.1 1383.57C3398.26 1369.71 3412.8 1351.83 3427.71 1329.95C3442.61 1307.7 3457.89 1281.25 3473.54 1250.61L3479.13 1239.12L3502.05 1256.08L3496.46 1267.57C3476.34 1306.6 3456.22 1339.98 3436.09 1367.7C3416.34 1395.42 3396.77 1418.04 3377.39 1435.55C3358.01 1453.06 3339.01 1465.83 3320.37 1473.85C3302.11 1481.88 3284.41 1485.89 3267.27 1485.89C3243.04 1485.89 3221.43 1480.96 3202.42 1471.11C3183.42 1461.27 3167.39 1447.95 3154.35 1431.17C3141.3 1414.03 3131.24 1394.33 3124.16 1372.08C3117.45 1349.46 3114.1 1325.75 3114.1 1300.95C3114.1 1261.55 3119.5 1225.81 3130.31 1193.71C3141.49 1161.24 3155.84 1133.52 3173.35 1110.54C3190.87 1087.56 3210.62 1069.68 3232.61 1056.92C3254.6 1044.15 3276.77 1037.77 3299.13 1037.77C3316.27 1037.77 3330.62 1040.14 3342.18 1044.88C3353.73 1049.62 3363.05 1055.64 3370.13 1062.94C3377.21 1070.23 3382.24 1078.07 3385.22 1086.46C3388.2 1094.85 3389.69 1102.88 3389.69 1110.54C3389.69 1118.2 3388.02 1126.22 3384.66 1134.61C3381.31 1142.64 3376.28 1150.3 3369.57 1157.59C3363.23 1164.52 3355.59 1170.91 3346.65 1176.74C3337.7 1182.22 3327.64 1186.23 3316.46 1188.78L3310.87 1173.46Z" fill="#EB0000"/>
<path d="M3554.04 1295.48C3554.04 1313.35 3553.48 1332.32 3552.37 1352.38C3551.25 1372.08 3548.83 1391.96 3545.1 1412.02C3541.74 1431.72 3536.71 1451.05 3530.01 1470.02C3523.3 1488.62 3514.17 1505.95 3502.61 1522L3460.13 1509.42C3469.45 1478.77 3475.04 1446.67 3476.9 1413.12C3478.76 1379.56 3479.69 1346 3479.69 1312.44C3479.69 1275.96 3478.58 1239.48 3476.34 1203.01C3473.73 1166.53 3470.94 1130.05 3467.95 1093.58C3464.6 1056.73 3461.81 1019.71 3459.57 982.503C3456.96 945.297 3455.66 907.725 3455.66 869.789C3455.66 846.809 3458.26 826.746 3463.48 809.602C3468.33 792.458 3474.85 778.232 3483.05 766.924C3491.25 755.616 3500.38 747.226 3510.44 741.755C3520.5 735.918 3530.56 733 3540.63 733C3554.79 733 3565.97 737.924 3574.17 747.773C3582.74 757.622 3589.07 770.936 3593.17 787.716C3597.27 804.495 3599.32 824.01 3599.32 846.261C3599.7 868.512 3598.76 892.04 3596.53 916.845C3594.29 941.649 3591.12 967.001 3587.02 992.899C3582.93 1018.8 3578.45 1043.97 3573.61 1068.41C3568.76 1092.85 3563.92 1115.64 3559.07 1136.8C3554.6 1157.96 3550.69 1176.01 3547.33 1190.97C3547.33 1193.89 3547.52 1196.99 3547.89 1200.27C3548.27 1203.19 3548.45 1206.11 3548.45 1209.03C3556.28 1191.88 3565.78 1173.46 3576.96 1153.76C3588.52 1133.7 3601.37 1115.1 3615.53 1097.95C3630.07 1080.81 3645.72 1066.58 3662.49 1055.28C3679.64 1043.6 3697.71 1037.77 3716.72 1037.77C3744.67 1037.77 3765.72 1046.89 3779.89 1065.12C3794.05 1083.36 3801.13 1109.63 3801.13 1143.91C3801.13 1167.62 3799.82 1190.42 3797.21 1212.31C3794.61 1234.2 3791.62 1255.35 3788.27 1275.78C3785.29 1295.84 3782.49 1315.36 3779.89 1334.33C3777.28 1353.29 3775.97 1372.08 3775.97 1390.68C3775.97 1412.93 3781.75 1424.06 3793.3 1424.06C3798.89 1424.06 3805.97 1419.32 3814.54 1409.83C3823.49 1399.98 3833.36 1387.03 3844.17 1370.98C3854.98 1354.93 3866.35 1336.51 3878.27 1315.72C3890.2 1294.93 3901.94 1273.23 3913.49 1250.61L3919.08 1239.12L3942 1256.08L3936.41 1267.57C3923.37 1292.74 3909.76 1318.28 3895.6 1344.17C3881.44 1370.07 3866.91 1393.6 3852 1414.76C3837.09 1435.55 3821.81 1452.69 3806.16 1466.19C3790.88 1479.32 3775.6 1485.89 3760.32 1485.89C3753.61 1485.89 3746.72 1484.79 3739.64 1482.6C3732.93 1480.42 3726.78 1476.59 3721.19 1471.11C3715.6 1465.64 3710.94 1458.35 3707.21 1449.23C3703.49 1439.74 3701.62 1427.71 3701.62 1413.12C3701.62 1398.52 3702.37 1382.66 3703.86 1365.51C3705.35 1348.37 3707.03 1330.86 3708.89 1312.99C3711.13 1294.75 3713.55 1276.69 3716.16 1258.82C3718.77 1240.94 3721 1224.16 3722.87 1208.48C3725.1 1192.79 3726.97 1178.75 3728.46 1166.35C3729.95 1153.58 3730.69 1143.19 3730.69 1135.16C3730.69 1114.37 3727.71 1099.23 3721.75 1089.75C3715.78 1080.26 3706.84 1075.52 3694.91 1075.52C3680.01 1075.52 3665.66 1081.9 3651.87 1094.67C3638.08 1107.44 3625.04 1123.49 3612.74 1142.82C3600.81 1161.79 3589.82 1182.4 3579.76 1204.65C3569.7 1226.54 3560.75 1246.78 3552.92 1265.38C3552.92 1270.86 3553.11 1276.33 3553.48 1281.8C3553.86 1286.9 3554.04 1291.46 3554.04 1295.48ZM3517.71 827.111C3517.71 842.067 3518.27 860.305 3519.38 881.827C3520.87 902.983 3522.55 925.964 3524.42 950.768C3526.65 975.573 3528.89 1001.47 3531.12 1028.46C3533.73 1055.46 3536.34 1082.09 3538.95 1108.35C3543.05 1087.92 3547.15 1065.49 3551.25 1041.05C3555.35 1016.24 3558.89 991.44 3561.87 966.636C3565.22 941.467 3567.65 917.027 3569.14 893.317C3571 869.607 3571.37 848.632 3570.25 830.394C3569.51 812.155 3567.09 797.564 3562.99 786.621C3558.89 775.313 3552.92 769.659 3545.1 769.659C3538.02 769.659 3531.68 773.854 3526.09 782.244C3520.5 790.634 3517.71 805.589 3517.71 827.111Z" fill="#EB0000"/>
<path d="M1894.32 1485.89C1877.18 1485.89 1862.83 1481.15 1851.28 1471.66C1840.1 1461.81 1831.16 1448.68 1824.45 1432.27C1817.74 1415.85 1812.89 1397.07 1809.91 1375.91C1807.3 1354.39 1806 1331.95 1806 1308.61C1806 1271.77 1807.49 1238.57 1810.47 1209.03C1813.45 1179.48 1816.99 1154.13 1821.09 1132.97C1825.19 1111.45 1829.29 1094.67 1833.39 1082.63C1837.49 1070.23 1840.47 1062.75 1842.34 1060.2C1844.94 1056.92 1848.3 1053.82 1852.4 1050.9C1856.87 1047.98 1861.34 1045.61 1865.81 1043.79C1870.29 1041.96 1874.76 1040.5 1879.23 1039.41C1883.7 1038.31 1887.43 1037.77 1890.41 1037.77C1898.98 1037.77 1904.95 1039.41 1908.3 1042.69C1911.65 1045.97 1913.33 1051.81 1913.33 1060.2C1912.96 1060.2 1912.03 1064.03 1910.54 1071.69C1909.42 1078.99 1907.93 1089.02 1906.06 1101.78C1904.2 1114.55 1902.15 1129.51 1899.91 1146.65C1897.68 1163.43 1895.63 1181.3 1893.77 1200.27C1892.27 1219.24 1890.97 1238.57 1889.85 1258.27C1888.73 1277.6 1888.18 1296.39 1888.18 1314.63C1888.18 1330.68 1888.73 1345.63 1889.85 1359.49C1890.97 1373.36 1892.83 1385.58 1895.44 1396.15C1898.42 1406.73 1901.96 1415.12 1906.06 1421.32C1910.54 1427.16 1916.13 1430.08 1922.83 1430.08C1929.54 1430.08 1935.88 1425.88 1941.84 1417.49C1947.8 1408.74 1953.39 1397.61 1958.61 1384.12C1963.83 1370.26 1968.67 1354.93 1973.15 1338.16C1977.62 1321.01 1981.72 1303.87 1985.44 1286.72C1989.17 1269.21 1992.52 1252.8 1995.51 1237.48C1998.86 1221.79 2001.66 1208.66 2003.89 1198.08C2005.38 1192.61 2008.18 1187.69 2012.28 1183.31C2016.75 1178.57 2021.97 1174.56 2027.93 1171.27C2033.89 1167.99 2040.23 1165.44 2046.94 1163.61C2053.64 1161.79 2059.98 1160.88 2065.94 1160.88C2070.41 1160.88 2073.4 1162.34 2074.89 1165.25C2076.38 1167.81 2077.12 1172 2077.12 1177.84C2077.12 1210.67 2079.17 1242.59 2083.27 1273.59C2087.37 1304.6 2093.15 1332.14 2100.6 1356.21C2108.43 1380.29 2117.56 1399.62 2127.99 1414.21C2138.43 1428.44 2150.17 1435.55 2163.21 1435.55C2172.16 1435.55 2180.54 1432.27 2188.37 1425.7C2196.19 1418.77 2203.09 1410.38 2209.05 1400.53C2215.39 1390.32 2220.42 1379.56 2224.14 1368.25C2228.24 1356.94 2230.85 1346.91 2231.97 1338.16C2217.06 1331.95 2203.09 1322.11 2190.04 1308.61C2177 1294.75 2165.45 1278.7 2155.38 1260.46C2145.7 1241.86 2138.06 1221.79 2132.47 1200.27C2126.88 1178.75 2124.08 1157.05 2124.08 1135.16C2124.08 1123.12 2125.38 1111.27 2127.99 1099.59C2130.6 1087.92 2134.52 1077.53 2139.73 1068.41C2145.32 1059.29 2152.22 1051.99 2160.42 1046.52C2168.62 1040.68 2178.3 1037.77 2189.48 1037.77C2204.39 1037.77 2217.25 1042.33 2228.06 1051.45C2239.24 1060.56 2248.37 1072.97 2255.45 1088.65C2262.9 1103.97 2268.49 1121.85 2272.22 1142.27C2275.95 1162.7 2277.81 1184.22 2277.81 1206.84C2277.81 1223.62 2276.69 1242.22 2274.46 1262.65C2272.22 1283.07 2269.42 1301.86 2266.07 1319H2276.69C2295.33 1319 2311.35 1312.44 2324.77 1299.31C2338.56 1286.18 2350.3 1269.94 2359.98 1250.61L2365.57 1239.12L2388.49 1256.08L2382.9 1267.57C2370.98 1290.55 2355.51 1309.34 2336.51 1323.93C2317.5 1338.52 2294.77 1345.82 2268.31 1345.82H2260.48C2254.89 1365.51 2248.18 1383.93 2240.36 1401.08C2232.53 1417.86 2223.4 1432.63 2212.96 1445.4C2202.9 1457.8 2191.72 1467.65 2179.42 1474.94C2167.12 1482.24 2154.08 1485.89 2140.29 1485.89C2124.27 1485.89 2110.1 1482.79 2097.81 1476.59C2085.88 1470.38 2075.45 1462.18 2066.5 1451.96C2057.56 1441.39 2049.92 1429.71 2043.58 1416.95C2037.62 1403.81 2032.59 1390.5 2028.49 1377C2024.76 1363.14 2021.78 1349.83 2019.54 1337.06C2017.31 1323.93 2015.63 1312.26 2014.51 1302.04C2011.53 1314.08 2008.36 1327.03 2005.01 1340.89C2001.66 1354.39 1997.74 1368.07 1993.27 1381.93C1988.8 1395.42 1983.58 1408.56 1977.62 1421.32C1971.66 1433.73 1964.57 1444.67 1956.38 1454.15C1948.55 1463.64 1939.42 1471.3 1928.98 1477.13C1918.92 1482.97 1907.37 1485.89 1894.32 1485.89ZM2156.5 1136.25C2156.5 1153.03 2158.37 1170.36 2162.09 1188.23C2165.82 1205.74 2171.22 1222.34 2178.3 1238.03C2185.39 1253.71 2193.77 1267.75 2203.46 1280.16C2213.52 1292.56 2224.52 1302.04 2236.44 1308.61C2236.81 1304.23 2237.19 1299.12 2237.56 1293.29C2238.31 1287.45 2238.68 1281.43 2238.68 1275.23C2239.05 1268.67 2239.24 1262.47 2239.24 1256.63C2239.61 1250.43 2239.8 1244.96 2239.8 1240.21C2239.8 1219.79 2238.49 1200.09 2235.88 1181.12C2233.27 1161.79 2229.55 1144.64 2224.7 1129.69C2219.86 1114.73 2214.08 1102.88 2207.37 1094.12C2200.67 1085 2193.21 1080.44 2185.01 1080.44C2179.42 1080.44 2174.76 1082.27 2171.04 1085.92C2167.31 1089.2 2164.33 1093.58 2162.09 1099.05C2159.86 1104.52 2158.37 1110.54 2157.62 1117.1C2156.88 1123.67 2156.5 1130.05 2156.5 1136.25Z" stroke="#EB0000" stroke-width="10" mask="url(#path-1-outside-1_588_46)"/>
<path d="M2704.9 1350.19C2704.9 1370.98 2706.76 1388.49 2710.49 1402.72C2714.21 1416.95 2720.74 1424.06 2730.05 1424.06C2735.64 1424.06 2741.61 1421.51 2747.94 1416.4C2754.65 1410.93 2762.29 1402.17 2770.86 1390.14C2779.43 1378.1 2789.12 1362.59 2799.93 1343.63C2811.11 1324.29 2823.78 1300.77 2837.94 1273.04L2854.71 1239.12L2877.63 1256.08L2860.86 1290.01C2845.21 1320.65 2830.49 1348.19 2816.7 1372.63C2803.28 1396.7 2790.43 1417.13 2778.13 1433.91C2765.83 1450.69 2753.72 1463.64 2741.79 1472.76C2730.24 1481.51 2718.69 1485.89 2707.13 1485.89C2694.84 1485.89 2684.4 1482.6 2675.83 1476.04C2667.63 1469.47 2660.74 1460.54 2655.15 1449.23C2649.56 1437.56 2645.27 1424.24 2642.29 1409.29C2639.31 1393.97 2637.26 1377.73 2636.14 1360.59C2627.19 1378.1 2617.32 1394.51 2606.51 1409.83C2595.7 1424.79 2584.34 1437.92 2572.41 1449.23C2560.86 1460.54 2548.75 1469.47 2536.07 1476.04C2523.4 1482.6 2510.73 1485.89 2498.06 1485.89C2479.43 1485.89 2461.35 1482.06 2443.84 1474.4C2426.32 1466.74 2410.67 1455.06 2396.88 1439.38C2383.46 1423.69 2372.66 1404 2364.46 1380.29C2356.26 1356.21 2352.16 1327.94 2352.16 1295.48C2352.16 1257.54 2357.19 1222.89 2367.25 1191.52C2377.31 1159.78 2390.92 1132.61 2408.06 1109.99C2425.2 1087.01 2444.96 1069.32 2467.32 1056.92C2489.68 1044.15 2513.16 1037.77 2537.75 1037.77C2552.66 1037.77 2566.45 1041.05 2579.12 1047.62C2591.79 1054.18 2602.78 1062.21 2612.1 1071.69C2621.79 1080.81 2629.8 1090.66 2636.14 1101.24C2642.47 1111.45 2646.76 1120.2 2649 1127.5L2655.7 1074.43C2656.45 1067.5 2659.8 1061.66 2665.77 1056.92C2672.1 1052.17 2679 1048.53 2686.45 1045.97C2693.9 1043.06 2701.17 1041.05 2708.25 1039.95C2715.33 1038.5 2720.36 1037.77 2723.35 1037.77C2727.82 1037.77 2730.8 1038.5 2732.29 1039.95C2733.78 1041.41 2734.53 1044.33 2734.53 1048.71C2734.53 1054.18 2732.85 1065.31 2729.49 1082.09C2726.51 1098.5 2723.16 1119.66 2719.43 1145.56C2716.08 1171.09 2712.72 1201.18 2709.37 1235.84C2706.39 1270.49 2704.9 1308.61 2704.9 1350.19ZM2643.41 1205.74C2643.41 1188.96 2640.8 1172.55 2635.58 1156.5C2630.36 1140.08 2623.28 1125.68 2614.34 1113.27C2605.39 1100.51 2594.96 1090.29 2583.03 1082.63C2571.48 1074.97 2559.18 1071.14 2546.14 1071.14C2530.11 1071.14 2515.02 1075.7 2500.86 1084.82C2487.07 1093.58 2474.96 1106.16 2464.52 1122.58C2454.46 1138.63 2446.45 1158.14 2440.48 1181.12C2434.52 1203.74 2431.54 1228.72 2431.54 1256.08C2431.54 1310.8 2440.3 1352.56 2457.81 1381.38C2475.33 1409.83 2498.62 1424.06 2527.69 1424.06C2540.36 1424.06 2553.4 1419.13 2566.82 1409.29C2580.61 1399.07 2593.09 1384.66 2604.27 1366.06C2615.83 1347.09 2625.14 1324.11 2632.23 1297.12C2639.68 1270.13 2643.41 1239.67 2643.41 1205.74Z" stroke="#EB0000" stroke-width="10" mask="url(#path-1-outside-1_588_46)"/>
<path d="M2852.48 1306.42C2852.48 1267.75 2853.97 1228.91 2856.95 1189.88C2859.93 1150.85 2863.84 1111.27 2868.69 1071.14H2817.82L2823.97 1037.77H2873.16C2878.38 1000.56 2883.6 963.353 2888.81 926.146C2894.4 888.575 2899.44 851.003 2903.91 813.432H2960.93C2960.18 821.457 2959.06 833.13 2957.57 848.45C2956.45 863.406 2954.96 880.915 2953.1 900.977C2951.61 920.675 2950.12 942.379 2948.63 966.089C2947.14 989.434 2945.65 1013.33 2944.16 1037.77H3052.61L3047.02 1071.14H2941.92C2940.43 1091.93 2939.13 1112.36 2938.01 1132.42C2936.89 1152.49 2935.77 1171.64 2934.65 1189.88C2933.91 1207.75 2933.35 1224.35 2932.98 1239.67C2932.6 1254.62 2932.42 1267.57 2932.42 1278.52C2932.42 1306.24 2933.16 1329.4 2934.65 1348C2936.52 1366.61 2939.13 1381.56 2942.48 1392.87C2946.21 1404.18 2950.68 1412.2 2955.9 1416.95C2961.49 1421.69 2967.82 1424.06 2974.9 1424.06C2984.22 1424.06 2994.47 1419.5 3005.65 1410.38C3017.2 1400.9 3029.13 1388.31 3041.43 1372.63C3053.72 1356.94 3066.21 1338.7 3078.88 1317.91C3091.55 1296.75 3103.85 1274.32 3115.77 1250.61L3121.36 1239.12L3144.28 1256.08L3138.69 1267.57C3121.55 1301.5 3104.41 1331.95 3087.26 1358.95C3070.49 1385.94 3053.91 1408.92 3037.51 1427.89C3021.11 1446.49 3005.09 1460.9 2989.44 1471.11C2973.78 1480.96 2958.69 1485.89 2944.16 1485.89C2929.62 1485.89 2916.58 1482.6 2905.03 1476.04C2893.85 1469.47 2884.34 1459.08 2876.52 1444.85C2868.69 1430.26 2862.73 1411.66 2858.63 1389.04C2854.53 1366.43 2852.48 1338.88 2852.48 1306.42Z" stroke="#EB0000" stroke-width="10" mask="url(#path-1-outside-1_588_46)"/>
<path d="M3310.87 1173.46C3315.34 1166.53 3319.07 1157.96 3322.05 1147.74C3325.41 1137.53 3327.08 1127.32 3327.08 1117.1C3327.08 1104.7 3323.91 1093.94 3317.58 1084.82C3311.24 1075.7 3299.88 1071.14 3283.48 1071.14C3272.67 1071.14 3261.68 1074.97 3250.5 1082.63C3239.32 1090.29 3228.88 1101.78 3219.19 1117.1C3209.88 1132.42 3202.24 1151.76 3196.27 1175.1C3190.31 1198.45 3187.33 1225.81 3187.33 1257.18C3187.33 1281.98 3189.94 1304.6 3195.15 1325.02C3200.37 1345.45 3208.01 1362.96 3218.07 1377.55C3228.14 1392.14 3240.25 1403.63 3254.41 1412.02C3268.94 1420.05 3285.16 1424.06 3303.04 1424.06C3316.09 1424.06 3329.32 1420.78 3342.73 1414.21C3356.52 1407.64 3370.31 1397.43 3384.1 1383.57C3398.26 1369.71 3412.8 1351.83 3427.71 1329.95C3442.61 1307.7 3457.89 1281.25 3473.54 1250.61L3479.13 1239.12L3502.05 1256.08L3496.46 1267.57C3476.34 1306.6 3456.22 1339.98 3436.09 1367.7C3416.34 1395.42 3396.77 1418.04 3377.39 1435.55C3358.01 1453.06 3339.01 1465.83 3320.37 1473.85C3302.11 1481.88 3284.41 1485.89 3267.27 1485.89C3243.04 1485.89 3221.43 1480.96 3202.42 1471.11C3183.42 1461.27 3167.39 1447.95 3154.35 1431.17C3141.3 1414.03 3131.24 1394.33 3124.16 1372.08C3117.45 1349.46 3114.1 1325.75 3114.1 1300.95C3114.1 1261.55 3119.5 1225.81 3130.31 1193.71C3141.49 1161.24 3155.84 1133.52 3173.35 1110.54C3190.87 1087.56 3210.62 1069.68 3232.61 1056.92C3254.6 1044.15 3276.77 1037.77 3299.13 1037.77C3316.27 1037.77 3330.62 1040.14 3342.18 1044.88C3353.73 1049.62 3363.05 1055.64 3370.13 1062.94C3377.21 1070.23 3382.24 1078.07 3385.22 1086.46C3388.2 1094.85 3389.69 1102.88 3389.69 1110.54C3389.69 1118.2 3388.02 1126.22 3384.66 1134.61C3381.31 1142.64 3376.28 1150.3 3369.57 1157.59C3363.23 1164.52 3355.59 1170.91 3346.65 1176.74C3337.7 1182.22 3327.64 1186.23 3316.46 1188.78L3310.87 1173.46Z" stroke="#EB0000" stroke-width="10" mask="url(#path-1-outside-1_588_46)"/>
<path d="M3554.04 1295.48C3554.04 1313.35 3553.48 1332.32 3552.37 1352.38C3551.25 1372.08 3548.83 1391.96 3545.1 1412.02C3541.74 1431.72 3536.71 1451.05 3530.01 1470.02C3523.3 1488.62 3514.17 1505.95 3502.61 1522L3460.13 1509.42C3469.45 1478.77 3475.04 1446.67 3476.9 1413.12C3478.76 1379.56 3479.69 1346 3479.69 1312.44C3479.69 1275.96 3478.58 1239.48 3476.34 1203.01C3473.73 1166.53 3470.94 1130.05 3467.95 1093.58C3464.6 1056.73 3461.81 1019.71 3459.57 982.503C3456.96 945.297 3455.66 907.725 3455.66 869.789C3455.66 846.809 3458.26 826.746 3463.48 809.602C3468.33 792.458 3474.85 778.232 3483.05 766.924C3491.25 755.616 3500.38 747.226 3510.44 741.755C3520.5 735.918 3530.56 733 3540.63 733C3554.79 733 3565.97 737.924 3574.17 747.773C3582.74 757.622 3589.07 770.936 3593.17 787.716C3597.27 804.495 3599.32 824.01 3599.32 846.261C3599.7 868.512 3598.76 892.04 3596.53 916.845C3594.29 941.649 3591.12 967.001 3587.02 992.899C3582.93 1018.8 3578.45 1043.97 3573.61 1068.41C3568.76 1092.85 3563.92 1115.64 3559.07 1136.8C3554.6 1157.96 3550.69 1176.01 3547.33 1190.97C3547.33 1193.89 3547.52 1196.99 3547.89 1200.27C3548.27 1203.19 3548.45 1206.11 3548.45 1209.03C3556.28 1191.88 3565.78 1173.46 3576.96 1153.76C3588.52 1133.7 3601.37 1115.1 3615.53 1097.95C3630.07 1080.81 3645.72 1066.58 3662.49 1055.28C3679.64 1043.6 3697.71 1037.77 3716.72 1037.77C3744.67 1037.77 3765.72 1046.89 3779.89 1065.12C3794.05 1083.36 3801.13 1109.63 3801.13 1143.91C3801.13 1167.62 3799.82 1190.42 3797.21 1212.31C3794.61 1234.2 3791.62 1255.35 3788.27 1275.78C3785.29 1295.84 3782.49 1315.36 3779.89 1334.33C3777.28 1353.29 3775.97 1372.08 3775.97 1390.68C3775.97 1412.93 3781.75 1424.06 3793.3 1424.06C3798.89 1424.06 3805.97 1419.32 3814.54 1409.83C3823.49 1399.98 3833.36 1387.03 3844.17 1370.98C3854.98 1354.93 3866.35 1336.51 3878.27 1315.72C3890.2 1294.93 3901.94 1273.23 3913.49 1250.61L3919.08 1239.12L3942 1256.08L3936.41 1267.57C3923.37 1292.74 3909.76 1318.28 3895.6 1344.17C3881.44 1370.07 3866.91 1393.6 3852 1414.76C3837.09 1435.55 3821.81 1452.69 3806.16 1466.19C3790.88 1479.32 3775.6 1485.89 3760.32 1485.89C3753.61 1485.89 3746.72 1484.79 3739.64 1482.6C3732.93 1480.42 3726.78 1476.59 3721.19 1471.11C3715.6 1465.64 3710.94 1458.35 3707.21 1449.23C3703.49 1439.74 3701.62 1427.71 3701.62 1413.12C3701.62 1398.52 3702.37 1382.66 3703.86 1365.51C3705.35 1348.37 3707.03 1330.86 3708.89 1312.99C3711.13 1294.75 3713.55 1276.69 3716.16 1258.82C3718.77 1240.94 3721 1224.16 3722.87 1208.48C3725.1 1192.79 3726.97 1178.75 3728.46 1166.35C3729.95 1153.58 3730.69 1143.19 3730.69 1135.16C3730.69 1114.37 3727.71 1099.23 3721.75 1089.75C3715.78 1080.26 3706.84 1075.52 3694.91 1075.52C3680.01 1075.52 3665.66 1081.9 3651.87 1094.67C3638.08 1107.44 3625.04 1123.49 3612.74 1142.82C3600.81 1161.79 3589.82 1182.4 3579.76 1204.65C3569.7 1226.54 3560.75 1246.78 3552.92 1265.38C3552.92 1270.86 3553.11 1276.33 3553.48 1281.8C3553.86 1286.9 3554.04 1291.46 3554.04 1295.48ZM3517.71 827.111C3517.71 842.067 3518.27 860.305 3519.38 881.827C3520.87 902.983 3522.55 925.964 3524.42 950.768C3526.65 975.573 3528.89 1001.47 3531.12 1028.46C3533.73 1055.46 3536.34 1082.09 3538.95 1108.35C3543.05 1087.92 3547.15 1065.49 3551.25 1041.05C3555.35 1016.24 3558.89 991.44 3561.87 966.636C3565.22 941.467 3567.65 917.027 3569.14 893.317C3571 869.607 3571.37 848.632 3570.25 830.394C3569.51 812.155 3567.09 797.564 3562.99 786.621C3558.89 775.313 3552.92 769.659 3545.1 769.659C3538.02 769.659 3531.68 773.854 3526.09 782.244C3520.5 790.634 3517.71 805.589 3517.71 827.111Z" stroke="#EB0000" stroke-width="10" mask="url(#path-1-outside-1_588_46)"/>
<path d="M863.396 232C1009.88 232 1142.32 247.717 1260.69 279.15C1379.81 310.093 1481.53 353.314 1565.88 408.813C1650.22 464.313 1715.32 530.372 1761.19 606.991C1807.06 683.611 1830 767.351 1830 858.214C1830 916.66 1821.49 973.142 1804.48 1027.66C1787.46 1082.18 1763.04 1133.5 1731.23 1181.63C1699.42 1229.77 1660.21 1273.72 1613.6 1313.51C1567.73 1353.29 1515.57 1387.67 1457.12 1416.65C1399.41 1445.14 1335.79 1467.24 1266.24 1482.95C1197.43 1498.67 1123.82 1506.53 1045.4 1506.53C965.494 1506.53 884.851 1501.62 803.469 1491.79C722.086 1481.97 641.443 1471.41 561.54 1460.12C534.166 1470.43 506.052 1479.27 477.198 1486.64C448.344 1494.5 419.491 1500.88 390.637 1505.79C361.783 1511.19 333.299 1515.12 305.185 1517.58C277.811 1520.53 251.916 1522 227.502 1522C153.517 1522 97.2893 1516.35 58.8175 1505.06C19.6058 1493.76 0 1476.81 0 1454.22C0 1440.96 5.54882 1429.17 16.6465 1418.86C27.0042 1408.54 44.7605 1399.95 69.9151 1393.07C95.0697 1385.71 127.993 1380.3 168.684 1376.87C208.636 1372.94 258.575 1370.97 318.502 1370.97C365.112 1370.97 410.982 1372.69 456.113 1376.13C501.243 1379.08 546.004 1382.76 590.394 1387.18L620.358 1366.55C635.894 1354.27 647.732 1338.8 655.87 1320.14C664.008 1300.98 669.927 1276.43 673.626 1246.47C677.326 1216.51 679.545 1179.92 680.285 1136.69C681.025 1092.98 681.395 1040.18 681.395 978.299C681.395 918.379 681.765 867.3 682.505 825.061C683.984 782.331 686.944 745.741 691.383 715.29C695.822 684.838 702.48 659.053 711.358 637.934C720.236 616.323 732.074 596.677 746.871 578.996C762.407 560.824 781.643 543.142 804.579 525.952C827.514 508.271 854.888 488.134 886.701 465.541L943.299 498.693C927.022 509.007 914.075 521.777 904.457 537.003C895.579 551.737 888.921 569.419 884.481 590.047C880.042 610.184 877.083 633.268 875.603 659.299C874.864 684.838 874.494 713.816 874.494 746.232V1161.01C874.494 1192.93 869.315 1220.93 858.957 1244.99C848.599 1268.57 834.542 1289.69 816.786 1308.35C799.77 1327.01 780.164 1343.71 757.968 1358.45C735.773 1373.18 712.838 1386.93 689.163 1399.7C732.814 1405.6 775.355 1411.49 816.786 1417.39C858.217 1423.28 898.169 1428.68 936.64 1433.59C975.852 1438.5 1013.21 1442.68 1048.73 1446.12C1084.98 1449.06 1119.38 1450.54 1151.93 1450.54C1212.6 1450.54 1266.61 1441.7 1313.96 1424.02C1361.31 1406.33 1402.37 1382.27 1437.14 1351.82C1471.92 1320.87 1501.14 1284.78 1524.81 1243.52C1549.23 1201.77 1568.84 1157.08 1583.63 1109.44C1598.43 1061.79 1608.79 1011.94 1614.71 959.881C1621.36 907.82 1624.69 856.249 1624.69 805.17C1624.69 724.13 1609.16 651.44 1578.08 587.1C1547.01 522.76 1500.77 468.242 1439.36 423.548C1378.7 378.362 1302.86 343.982 1211.86 320.407C1121.6 296.34 1016.91 284.307 897.799 284.307C811.977 284.307 737.253 288.973 673.626 298.305C610 307.146 555.252 319.179 509.381 334.404C464.251 349.139 427.259 366.083 398.405 385.238C369.551 404.393 346.616 424.284 329.6 444.913C313.323 465.05 301.856 485.187 295.197 505.324C289.278 525.461 286.319 543.879 286.319 560.578C286.319 580.224 288.538 599.624 292.978 618.779C298.156 637.443 307.774 654.142 321.831 668.876C336.628 683.611 357.344 695.398 383.978 704.239C410.612 713.079 446.125 717.5 490.515 717.5C505.312 717.5 517.52 717.009 527.138 716.026C536.756 714.553 544.894 712.834 551.552 710.869C558.951 708.905 565.24 706.694 570.418 704.239L583.736 747.705C572.638 753.108 553.772 757.774 527.138 761.703C501.243 765.632 473.129 767.597 442.796 767.597C398.405 767.597 356.974 762.44 318.502 752.126C280.77 741.812 247.847 727.814 219.733 710.132C191.619 691.96 169.794 671.086 154.257 647.511C137.981 623.936 129.842 598.887 129.842 572.366C129.842 526.689 147.968 483.468 184.221 442.702C220.473 401.446 271.152 365.347 336.258 334.404C401.364 302.971 478.678 278.168 568.199 259.995C658.46 241.332 756.859 232 863.396 232ZM182.001 1424.02C170.164 1424.02 157.586 1424.26 144.269 1424.75C130.952 1425.24 118.745 1426.47 107.647 1428.44C95.8096 1430.4 86.1916 1433.35 78.7932 1437.28C71.3948 1441.21 67.6956 1446.85 67.6956 1454.22C67.6956 1464.04 79.903 1471.41 104.318 1476.32C128.733 1481.23 169.794 1483.69 227.502 1483.69C271.892 1483.69 314.063 1480.5 354.015 1474.11C394.706 1467.73 432.808 1458.4 468.32 1446.12C419.491 1440.22 371.031 1435.07 322.941 1430.65C274.851 1426.23 227.871 1424.02 182.001 1424.02Z" fill="#EB0000"/>
<circle cx="1796.28" cy="310.306" r="85" transform="rotate(53.0931 1796.28 310.306)" stroke="#F4D199" stroke-width="30"/>
<path d="M2049.75 119.941L1885.44 275.832L1854.24 234.283L2049.75 119.941Z" fill="#F4D199"/>
<path d="M1738.7 353.543L1725.57 371.138L1680.02 412.316L1606.52 473.048L1512.27 547.387L1406.48 628.058L1299.52 707.163L1201.85 776.959L1123.04 830.615L1070.8 862.877L1050.24 870.588L1063.37 852.993L1108.92 811.815L1182.42 751.084L1276.67 676.744L1382.46 596.073L1489.42 516.968L1587.09 447.172L1665.9 393.516L1718.14 361.254L1738.7 353.543Z" fill="#F4D199"/>
<circle cx="1050.24" cy="870.588" r="150" transform="rotate(53.0931 1050.24 870.588)" fill="#F4D199"/>
<path d="M632.178 458.3C677.385 490.025 688.314 552.391 656.589 597.598C624.863 642.805 562.497 653.734 517.29 622.009C472.083 590.284 461.154 527.917 492.879 482.71C524.605 437.503 586.971 426.574 632.178 458.3Z" stroke="#F4D199" stroke-width="30"/>
<path d="M320.166 361.502L508.277 451.195L468.478 507.905L320.166 361.502Z" fill="#F4D199"/>
<path d="M647.5 591.637L660.893 593.485L692.658 608.966L739.687 636.565L797.377 673.58L860.079 716.387L921.657 760.798L976.083 802.463L1018.03 837.305L1043.39 861.914L1049.68 873.88L1036.29 872.032L1004.52 856.55L957.494 828.952L899.804 791.937L837.102 749.129L775.524 704.719L721.098 663.054L679.152 628.211L653.792 603.603L647.5 591.637Z" fill="#F4D199"/>
<circle cx="1049.49" cy="873.329" r="150" transform="rotate(-54.9395 1049.49 873.329)" fill="#F4D199"/>
</svg>
