<svg width="2140" height="1522" viewBox="0 0 2140 1522" fill="none" xmlns="http://www.w3.org/2000/svg">
<path d="M863.396 232C1009.88 232 1142.32 247.717 1260.69 279.15C1379.81 310.093 1481.53 353.314 1565.88 408.813C1650.22 464.313 1715.32 530.372 1761.19 606.991C1807.06 683.611 1830 767.351 1830 858.214C1830 916.66 1821.49 973.142 1804.48 1027.66C1787.46 1082.18 1763.04 1133.5 1731.23 1181.63C1699.42 1229.77 1660.21 1273.72 1613.6 1313.51C1567.73 1353.29 1515.57 1387.67 1457.12 1416.65C1399.41 1445.14 1335.79 1467.24 1266.24 1482.95C1197.43 1498.67 1123.82 1506.53 1045.4 1506.53C965.494 1506.53 884.851 1501.62 803.469 1491.79C722.086 1481.97 641.443 1471.41 561.54 1460.12C534.166 1470.43 506.052 1479.27 477.198 1486.64C448.344 1494.5 419.491 1500.88 390.637 1505.79C361.783 1511.19 333.299 1515.12 305.185 1517.58C277.811 1520.53 251.916 1522 227.502 1522C153.517 1522 97.2893 1516.35 58.8175 1505.06C19.6058 1493.76 0 1476.81 0 1454.22C0 1440.96 5.54882 1429.17 16.6465 1418.86C27.0042 1408.54 44.7605 1399.95 69.9151 1393.07C95.0697 1385.71 127.993 1380.3 168.684 1376.87C208.636 1372.94 258.575 1370.97 318.502 1370.97C365.112 1370.97 410.982 1372.69 456.113 1376.13C501.243 1379.08 546.004 1382.76 590.394 1387.18L620.358 1366.55C635.894 1354.27 647.732 1338.8 655.87 1320.14C664.008 1300.98 669.927 1276.43 673.626 1246.47C677.326 1216.51 679.545 1179.92 680.285 1136.69C681.025 1092.98 681.395 1040.18 681.395 978.299C681.395 918.379 681.765 867.3 682.505 825.061C683.984 782.331 686.944 745.741 691.383 715.29C695.822 684.838 702.48 659.053 711.358 637.934C720.236 616.323 732.074 596.677 746.871 578.996C762.407 560.824 781.643 543.142 804.579 525.952C827.514 508.271 854.888 488.134 886.701 465.541L943.299 498.693C927.022 509.007 914.075 521.777 904.457 537.003C895.579 551.737 888.921 569.419 884.481 590.047C880.042 610.184 877.083 633.268 875.603 659.299C874.864 684.838 874.494 713.816 874.494 746.232V1161.01C874.494 1192.93 869.315 1220.93 858.957 1244.99C848.599 1268.57 834.542 1289.69 816.786 1308.35C799.77 1327.01 780.164 1343.71 757.968 1358.45C735.773 1373.18 712.838 1386.93 689.163 1399.7C732.814 1405.6 775.355 1411.49 816.786 1417.39C858.217 1423.28 898.169 1428.68 936.64 1433.59C975.852 1438.5 1013.21 1442.68 1048.73 1446.12C1084.98 1449.06 1119.38 1450.54 1151.93 1450.54C1212.6 1450.54 1266.61 1441.7 1313.96 1424.02C1361.31 1406.33 1402.37 1382.27 1437.14 1351.82C1471.92 1320.87 1501.14 1284.78 1524.81 1243.52C1549.23 1201.77 1568.84 1157.08 1583.63 1109.44C1598.43 1061.79 1608.79 1011.94 1614.71 959.881C1621.36 907.82 1624.69 856.249 1624.69 805.17C1624.69 724.13 1609.16 651.44 1578.08 587.1C1547.01 522.76 1500.77 468.242 1439.36 423.548C1378.7 378.362 1302.86 343.982 1211.86 320.407C1121.6 296.34 1016.91 284.307 897.799 284.307C811.977 284.307 737.253 288.973 673.626 298.305C610 307.146 555.252 319.179 509.381 334.404C464.251 349.139 427.259 366.083 398.405 385.238C369.551 404.393 346.616 424.284 329.6 444.913C313.323 465.05 301.856 485.187 295.197 505.324C289.278 525.461 286.319 543.879 286.319 560.578C286.319 580.224 288.538 599.624 292.978 618.779C298.156 637.443 307.774 654.142 321.831 668.876C336.628 683.611 357.344 695.398 383.978 704.239C410.612 713.079 446.125 717.5 490.515 717.5C505.312 717.5 517.52 717.009 527.138 716.026C536.756 714.553 544.894 712.834 551.552 710.869C558.951 708.905 565.24 706.694 570.418 704.239L583.736 747.705C572.638 753.108 553.772 757.774 527.138 761.703C501.243 765.632 473.129 767.597 442.796 767.597C398.405 767.597 356.974 762.44 318.502 752.126C280.77 741.812 247.847 727.814 219.733 710.132C191.619 691.96 169.794 671.086 154.257 647.511C137.981 623.936 129.842 598.887 129.842 572.366C129.842 526.689 147.968 483.468 184.221 442.702C220.473 401.446 271.152 365.347 336.258 334.404C401.364 302.971 478.678 278.168 568.199 259.995C658.46 241.332 756.859 232 863.396 232ZM182.001 1424.02C170.164 1424.02 157.586 1424.26 144.269 1424.75C130.952 1425.24 118.745 1426.47 107.647 1428.44C95.8096 1430.4 86.1916 1433.35 78.7932 1437.28C71.3948 1441.21 67.6956 1446.85 67.6956 1454.22C67.6956 1464.04 79.903 1471.41 104.318 1476.32C128.733 1481.23 169.794 1483.69 227.502 1483.69C271.892 1483.69 314.063 1480.5 354.015 1474.11C394.706 1467.73 432.808 1458.4 468.32 1446.12C419.491 1440.22 371.031 1435.07 322.941 1430.65C274.851 1426.23 227.871 1424.02 182.001 1424.02Z" fill="#EB0000"/>
<circle cx="1796.28" cy="310.306" r="85" transform="rotate(53.0931 1796.28 310.306)" stroke="#F4D199" stroke-width="30"/>
<path d="M2049.75 119.941L1885.44 275.832L1854.24 234.283L2049.75 119.941Z" fill="#F4D199"/>
<path d="M1738.7 353.543L1725.57 371.138L1680.02 412.316L1606.52 473.048L1512.27 547.387L1406.48 628.058L1299.52 707.163L1201.85 776.959L1123.04 830.615L1070.8 862.877L1050.24 870.588L1063.37 852.993L1108.92 811.815L1182.42 751.084L1276.67 676.744L1382.46 596.073L1489.42 516.968L1587.09 447.172L1665.9 393.516L1718.14 361.254L1738.7 353.543Z" fill="#F4D199"/>
<circle cx="1050.24" cy="870.588" r="150" transform="rotate(53.0931 1050.24 870.588)" fill="#F4D199"/>
<path d="M632.178 458.3C677.385 490.025 688.314 552.391 656.589 597.598C624.863 642.805 562.497 653.734 517.29 622.009C472.083 590.284 461.154 527.917 492.879 482.71C524.605 437.503 586.971 426.574 632.178 458.3Z" stroke="#F4D199" stroke-width="30"/>
<path d="M320.166 361.502L508.277 451.195L468.478 507.905L320.166 361.502Z" fill="#F4D199"/>
<path d="M647.5 591.637L660.893 593.485L692.658 608.966L739.687 636.565L797.377 673.58L860.079 716.387L921.657 760.798L976.083 802.463L1018.03 837.305L1043.39 861.914L1049.68 873.88L1036.29 872.032L1004.52 856.55L957.494 828.952L899.804 791.937L837.102 749.129L775.524 704.719L721.098 663.054L679.152 628.211L653.792 603.603L647.5 591.637Z" fill="#F4D199"/>
<circle cx="1049.49" cy="873.329" r="150" transform="rotate(-54.9395 1049.49 873.329)" fill="#F4D199"/>
</svg>
